<svg width="1200" height="675" viewBox="0 0 1200 675" fill="none" xmlns="http://www.w3.org/2000/svg">
  <rect width="1200" height="675" fill="#0B102B"/>
  <rect width="1200" height="74" fill="#0D1334"/>
  <rect x="0.5" y="73.5" width="1199" height="1" fill="#293357"/>

  <rect x="34" y="22" width="34" height="34" rx="9" fill="url(#logoGradient)"/>
  <text x="51" y="45" text-anchor="middle" font-size="17" font-family="Inter, Arial, sans-serif">🏨</text>
  <text x="82" y="36" fill="#F8FAFC" font-size="22" font-weight="700" font-family="Georgia, serif">Grand Hotel</text>
  <text x="83" y="55" fill="#8993B5" font-size="8" font-weight="700" letter-spacing="4" font-family="Inter, Arial, sans-serif">RESERVATION SYSTEM</text>

  <rect x="1052" y="22" width="64" height="30" rx="8" fill="#1B2448" stroke="#33406B"/>
  <text x="1084" y="41" text-anchor="middle" fill="#B8C1D8" font-size="10" font-family="Inter, Arial, sans-serif">Settings</text>
  <rect x="1128" y="22" width="50" height="30" rx="8" fill="#7C5CFF"/>
  <text x="1153" y="41" text-anchor="middle" fill="white" font-size="10" font-weight="700" font-family="Inter, Arial, sans-serif">Help</text>

  <rect y="74" width="200" height="601" fill="#101735"/>
  <rect x="199.5" y="74" width="1" height="601" fill="#293357"/>
  <text x="17" y="113" fill="#737D9E" font-size="8" font-weight="700" letter-spacing="3" font-family="Inter, Arial, sans-serif">OPERATIONS</text>

  <rect x="9" y="130" width="182" height="48" rx="8" fill="#24255A"/>
  <rect x="9" y="130" width="2" height="48" fill="#7C5CFF"/>
  <rect x="26" y="140" width="30" height="30" rx="8" fill="#7C5CFF"/>
  <text x="41" y="160" text-anchor="middle" font-size="14" font-family="Inter, Arial, sans-serif">✚</text>
  <text x="63" y="158" fill="#F8FAFC" font-size="12" font-weight="700" font-family="Inter, Arial, sans-serif">Reserve</text>

  <rect x="26" y="194" width="30" height="30" rx="8" fill="#1B2448" stroke="#25335F"/>
  <text x="41" y="214" text-anchor="middle" font-size="13" font-family="Inter, Arial, sans-serif">🔍</text>
  <text x="63" y="212" fill="#99A4BF" font-size="11" font-weight="700" font-family="Inter, Arial, sans-serif">View / Lookup</text>

  <rect x="26" y="251" width="30" height="30" rx="8" fill="#1B2448" stroke="#25335F"/>
  <text x="41" y="271" text-anchor="middle" font-size="13" font-family="Inter, Arial, sans-serif">📊</text>
  <text x="63" y="269" fill="#99A4BF" font-size="11" font-weight="700" font-family="Inter, Arial, sans-serif">Availability</text>

  <line x1="17" y1="311" x2="183" y2="311" stroke="#293357"/>
  <text x="17" y="341" fill="#737D9E" font-size="8" font-weight="700" letter-spacing="3" font-family="Inter, Arial, sans-serif">MANAGEMENT</text>

  <rect x="26" y="369" width="30" height="30" rx="8" fill="#1B2448" stroke="#25335F"/>
  <text x="41" y="389" text-anchor="middle" font-size="13" font-family="Inter, Arial, sans-serif">🖊</text>
  <text x="63" y="387" fill="#99A4BF" font-size="11" font-weight="700" font-family="Inter, Arial, sans-serif">Update</text>

  <rect x="26" y="426" width="30" height="30" rx="8" fill="#1B2448" stroke="#25335F"/>
  <text x="41" y="446" text-anchor="middle" font-size="13" font-family="Inter, Arial, sans-serif">🗑</text>
  <text x="63" y="444" fill="#99A4BF" font-size="11" font-weight="700" font-family="Inter, Arial, sans-serif">Delete</text>

  <text x="240" y="154" fill="#F8FAFC" font-size="36" font-weight="700" font-family="Georgia, serif">Reserve a </text>
  <text x="404" y="154" fill="#8A6CFF" font-size="36" font-style="italic" font-weight="700" font-family="Georgia, serif">Room</text>
  <text x="240" y="187" fill="#A8B2CF" font-size="13" font-family="Inter, Arial, sans-serif">Create a new reservation for your guests with complete booking details.</text>

  <rect x="240" y="215" width="90" height="24" rx="12" fill="#1B2448" stroke="#4D4CC2"/>
  <text x="285" y="231" text-anchor="middle" fill="#8A84FF" font-size="9" font-weight="700" letter-spacing="2" font-family="Inter, Arial, sans-serif">NEW BOOKING</text>
  <line x1="342" y1="227" x2="690" y2="227" stroke="#2A345D"/>

  <rect x="240" y="286" width="458" height="240" rx="14" fill="#20294F" stroke="#34426E"/>
  <rect x="240" y="286" width="458" height="2" fill="#7C5CFF"/>

  <text x="270" y="329" fill="#9FAAC4" font-size="10" font-weight="700" letter-spacing="1" font-family="Inter, Arial, sans-serif">GUEST NAME</text>
  <rect x="270" y="344" width="398" height="40" rx="10" fill="#141A3A" stroke="#3A4776"/>
  <text x="284" y="369" fill="#78849F" font-size="12" font-family="Inter, Arial, sans-serif">Enter full name</text>

  <text x="270" y="416" fill="#9FAAC4" font-size="10" font-weight="700" letter-spacing="1" font-family="Inter, Arial, sans-serif">ROOM NUMBER</text>
  <rect x="270" y="430" width="193" height="40" rx="10" fill="#141A3A" stroke="#3A4776"/>
  <text x="284" y="455" fill="#78849F" font-size="12" font-family="Inter, Arial, sans-serif">e.g. 101</text>

  <text x="477" y="416" fill="#9FAAC4" font-size="10" font-weight="700" letter-spacing="1" font-family="Inter, Arial, sans-serif">CONTACT NUMBER</text>
  <rect x="477" y="430" width="191" height="40" rx="10" fill="#141A3A" stroke="#3A4776"/>
  <text x="491" y="455" fill="#78849F" font-size="12" font-family="Inter, Arial, sans-serif">e.g. 9876543210</text>

  <rect x="270" y="491" width="140" height="38" rx="10" fill="#7C5CFF"/>
  <text x="340" y="515" text-anchor="middle" fill="white" font-size="11" font-weight="700" font-family="Inter, Arial, sans-serif">Confirm Reservation</text>

  <defs>
    <linearGradient id="logoGradient" x1="34" y1="22" x2="68" y2="56" gradientUnits="userSpaceOnUse">
      <stop stop-color="#6D7CFF"/>
      <stop offset="1" stop-color="#8B5CF6"/>
    </linearGradient>
  </defs>
</svg>
